<svg width="254" height="36" viewBox="0 0 254 36" fill="none" xmlns="http://www.w3.org/2000/svg">
<path d="M8.596 1.242V11H7.322V6.576H2.352V11H1.078V1.242H2.352V5.526H7.322V1.242H8.596ZM11.4294 2.082C11.1867 2.082 10.9814 1.998 10.8134 1.83C10.6454 1.662 10.5614 1.45667 10.5614 1.214C10.5614 0.971333 10.6454 0.766 10.8134 0.598C10.9814 0.43 11.1867 0.345999 11.4294 0.345999C11.6627 0.345999 11.8587 0.43 12.0174 0.598C12.1854 0.766 12.2694 0.971333 12.2694 1.214C12.2694 1.45667 12.1854 1.662 12.0174 1.83C11.8587 1.998 11.6627 2.082 11.4294 2.082ZM12.0454 3.328V11H10.7714V3.328H12.0454ZM15.8687 1.242L15.7147 8.242H14.6507L14.4967 1.242H15.8687ZM15.2387 11.084C14.996 11.084 14.7907 11 14.6227 10.832C14.4547 10.664 14.3707 10.4587 14.3707 10.216C14.3707 9.97333 14.4547 9.768 14.6227 9.6C14.7907 9.432 14.996 9.348 15.2387 9.348C15.472 9.348 15.668 9.432 15.8267 9.6C15.9947 9.768 16.0787 9.97333 16.0787 10.216C16.0787 10.4587 15.9947 10.664 15.8267 10.832C15.668 11 15.472 11.084 15.2387 11.084ZM14.392 22.172L11.83 32H8.932L7.364 25.532L5.74 32H2.842L0.35 22.172H2.912L4.326 29.326L6.076 22.172H8.708L10.388 29.326L11.816 22.172H14.392ZM20.3946 24.104C21.2906 24.104 22.0093 24.4027 22.5506 25C23.0919 25.588 23.3626 26.4 23.3626 27.436V32H20.9826V27.758C20.9826 27.2353 20.8473 26.8293 20.5766 26.54C20.3059 26.2507 19.9419 26.106 19.4846 26.106C19.0273 26.106 18.6633 26.2507 18.3926 26.54C18.1219 26.8293 17.9866 27.2353 17.9866 27.758V32H15.5926V21.64H17.9866V25.238C18.2293 24.8927 18.5606 24.6173 18.9806 24.412C19.4006 24.2067 19.8719 24.104 20.3946 24.104ZM24.5502 28.08C24.5502 27.2773 24.6995 26.5727 24.9982 25.966C25.3062 25.3593 25.7215 24.8927 26.2442 24.566C26.7669 24.2393 27.3502 24.076 27.9942 24.076C28.5449 24.076 29.0255 24.188 29.4362 24.412C29.8562 24.636 30.1782 24.93 30.4022 25.294V24.188H32.7962V32H30.4022V30.894C30.1689 31.258 29.8422 31.552 29.4222 31.776C29.0115 32 28.5309 32.112 27.9802 32.112C27.3455 32.112 26.7669 31.9487 26.2442 31.622C25.7215 31.286 25.3062 30.8147 24.9982 30.208C24.6995 29.592 24.5502 28.8827 24.5502 28.08ZM30.4022 28.094C30.4022 27.4967 30.2342 27.0253 29.8982 26.68C29.5715 26.3347 29.1702 26.162 28.6942 26.162C28.2182 26.162 27.8122 26.3347 27.4762 26.68C27.1495 27.016 26.9862 27.4827 26.9862 28.08C26.9862 28.6773 27.1495 29.1533 27.4762 29.508C27.8122 29.8533 28.2182 30.026 28.6942 30.026C29.1702 30.026 29.5715 29.8533 29.8982 29.508C30.2342 29.1627 30.4022 28.6913 30.4022 28.094ZM38.8822 29.97V32H37.6642C36.7962 32 36.1195 31.79 35.6342 31.37C35.1488 30.9407 34.9062 30.2453 34.9062 29.284V26.176H33.9542V24.188H34.9062V22.284H37.3002V24.188H38.8682V26.176H37.3002V29.312C37.3002 29.5453 37.3562 29.7133 37.4682 29.816C37.5802 29.9187 37.7668 29.97 38.0282 29.97H38.8822ZM54.3965 24.188L52.2825 32H49.6365L48.4045 26.932L47.1305 32H44.4985L42.3705 24.188H44.7645L45.8705 29.774L47.1865 24.188H49.7205L51.0505 29.746L52.1425 24.188H54.3965ZM58.8654 32.112C58.1001 32.112 57.4094 31.9487 56.7934 31.622C56.1867 31.2953 55.7061 30.8287 55.3514 30.222C55.0061 29.6153 54.8334 28.906 54.8334 28.094C54.8334 27.2913 55.0107 26.5867 55.3654 25.98C55.7201 25.364 56.2054 24.8927 56.8214 24.566C57.4374 24.2393 58.1281 24.076 58.8934 24.076C59.6587 24.076 60.3494 24.2393 60.9654 24.566C61.5814 24.8927 62.0667 25.364 62.4214 25.98C62.7761 26.5867 62.9534 27.2913 62.9534 28.094C62.9534 28.8967 62.7714 29.606 62.4074 30.222C62.0527 30.8287 61.5627 31.2953 60.9374 31.622C60.3214 31.9487 59.6307 32.112 58.8654 32.112ZM58.8654 30.04C59.3227 30.04 59.7101 29.872 60.0274 29.536C60.3541 29.2 60.5174 28.7193 60.5174 28.094C60.5174 27.4687 60.3587 26.988 60.0414 26.652C59.7334 26.316 59.3507 26.148 58.8934 26.148C58.4267 26.148 58.0394 26.316 57.7314 26.652C57.4234 26.9787 57.2694 27.4593 57.2694 28.094C57.2694 28.7193 57.4187 29.2 57.7174 29.536C58.0254 29.872 58.4081 30.04 58.8654 30.04ZM71.9375 24.188V32H69.5435V30.936C69.3008 31.2813 68.9695 31.5613 68.5495 31.776C68.1388 31.9813 67.6815 32.084 67.1775 32.084C66.5801 32.084 66.0528 31.9533 65.5955 31.692C65.1381 31.4213 64.7835 31.034 64.5315 30.53C64.2795 30.026 64.1535 29.4333 64.1535 28.752V24.188H66.5335V28.43C66.5335 28.9527 66.6688 29.3587 66.9395 29.648C67.2101 29.9373 67.5741 30.082 68.0315 30.082C68.4981 30.082 68.8668 29.9373 69.1375 29.648C69.4081 29.3587 69.5435 28.9527 69.5435 28.43V24.188H71.9375ZM76.0511 21.64V32H73.6571V21.64H76.0511ZM77.31 28.08C77.31 27.2773 77.4593 26.5727 77.758 25.966C78.066 25.3593 78.4813 24.8927 79.004 24.566C79.5266 24.2393 80.11 24.076 80.754 24.076C81.2673 24.076 81.734 24.1833 82.154 24.398C82.5833 24.6127 82.9193 24.902 83.162 25.266V21.64H85.556V32H83.162V30.88C82.938 31.2533 82.616 31.552 82.196 31.776C81.7853 32 81.3046 32.112 80.754 32.112C80.11 32.112 79.5266 31.9487 79.004 31.622C78.4813 31.286 78.066 30.8147 77.758 30.208C77.4593 29.592 77.31 28.8827 77.31 28.08ZM83.162 28.094C83.162 27.4967 82.994 27.0253 82.658 26.68C82.3313 26.3347 81.93 26.162 81.454 26.162C80.978 26.162 80.572 26.3347 80.236 26.68C79.9093 27.016 79.746 27.4827 79.746 28.08C79.746 28.6773 79.9093 29.1533 80.236 29.508C80.572 29.8533 80.978 30.026 81.454 30.026C81.93 30.026 82.3313 29.8533 82.658 29.508C82.994 29.1627 83.162 28.6913 83.162 28.094ZM98.2347 24.188L93.3347 35.71H90.7587L92.5507 31.734L89.3727 24.188H92.0467L93.8527 29.074L95.6447 24.188H98.2347ZM102.656 32.112C101.891 32.112 101.2 31.9487 100.584 31.622C99.9778 31.2953 99.4971 30.8287 99.1424 30.222C98.7971 29.6153 98.6244 28.906 98.6244 28.094C98.6244 27.2913 98.8018 26.5867 99.1564 25.98C99.5111 25.364 99.9964 24.8927 100.612 24.566C101.228 24.2393 101.919 24.076 102.684 24.076C103.45 24.076 104.14 24.2393 104.756 24.566C105.372 24.8927 105.858 25.364 106.212 25.98C106.567 26.5867 106.744 27.2913 106.744 28.094C106.744 28.8967 106.562 29.606 106.198 30.222C105.844 30.8287 105.354 31.2953 104.728 31.622C104.112 31.9487 103.422 32.112 102.656 32.112ZM102.656 30.04C103.114 30.04 103.501 29.872 103.818 29.536C104.145 29.2 104.308 28.7193 104.308 28.094C104.308 27.4687 104.15 26.988 103.832 26.652C103.524 26.316 103.142 26.148 102.684 26.148C102.218 26.148 101.83 26.316 101.522 26.652C101.214 26.9787 101.06 27.4593 101.06 28.094C101.06 28.7193 101.21 29.2 101.508 29.536C101.816 29.872 102.199 30.04 102.656 30.04ZM115.728 24.188V32H113.334V30.936C113.092 31.2813 112.76 31.5613 112.34 31.776C111.93 31.9813 111.472 32.084 110.968 32.084C110.371 32.084 109.844 31.9533 109.386 31.692C108.929 31.4213 108.574 31.034 108.322 30.53C108.07 30.026 107.944 29.4333 107.944 28.752V24.188H110.324V28.43C110.324 28.9527 110.46 29.3587 110.73 29.648C111.001 29.9373 111.365 30.082 111.822 30.082C112.289 30.082 112.658 29.9373 112.928 29.648C113.199 29.3587 113.334 28.9527 113.334 28.43V24.188H115.728ZM122.809 21.64V32H120.415V21.64H122.809ZM125.748 23.376C125.328 23.376 124.982 23.2547 124.712 23.012C124.45 22.76 124.32 22.452 124.32 22.088C124.32 21.7147 124.45 21.4067 124.712 21.164C124.982 20.912 125.328 20.786 125.748 20.786C126.158 20.786 126.494 20.912 126.756 21.164C127.026 21.4067 127.162 21.7147 127.162 22.088C127.162 22.452 127.026 22.76 126.756 23.012C126.494 23.2547 126.158 23.376 125.748 23.376ZM126.938 24.188V32H124.544V24.188H126.938ZM133.447 32L131.067 28.724V32H128.673V21.64H131.067V27.366L133.433 24.188H136.387L133.139 28.108L136.415 32H133.447ZM144.691 27.968C144.691 28.192 144.677 28.4253 144.649 28.668H139.231C139.268 29.1533 139.422 29.5267 139.693 29.788C139.973 30.04 140.314 30.166 140.715 30.166C141.312 30.166 141.728 29.914 141.961 29.41H144.509C144.378 29.9233 144.14 30.3853 143.795 30.796C143.459 31.2067 143.034 31.5287 142.521 31.762C142.008 31.9953 141.434 32.112 140.799 32.112C140.034 32.112 139.352 31.9487 138.755 31.622C138.158 31.2953 137.691 30.8287 137.355 30.222C137.019 29.6153 136.851 28.906 136.851 28.094C136.851 27.282 137.014 26.5727 137.341 25.966C137.677 25.3593 138.144 24.8927 138.741 24.566C139.338 24.2393 140.024 24.076 140.799 24.076C141.555 24.076 142.227 24.2347 142.815 24.552C143.403 24.8693 143.86 25.322 144.187 25.91C144.523 26.498 144.691 27.184 144.691 27.968ZM142.241 27.338C142.241 26.9273 142.101 26.6007 141.821 26.358C141.541 26.1153 141.191 25.994 140.771 25.994C140.37 25.994 140.029 26.1107 139.749 26.344C139.478 26.5773 139.31 26.9087 139.245 27.338H142.241ZM153.275 29.97V32H152.057C151.189 32 150.512 31.79 150.027 31.37C149.541 30.9407 149.299 30.2453 149.299 29.284V26.176H148.347V24.188H149.299V22.284H151.693V24.188H153.261V26.176H151.693V29.312C151.693 29.5453 151.749 29.7133 151.861 29.816C151.973 29.9187 152.159 29.97 152.421 29.97H153.275ZM158.164 32.112C157.399 32.112 156.708 31.9487 156.092 31.622C155.486 31.2953 155.005 30.8287 154.65 30.222C154.305 29.6153 154.132 28.906 154.132 28.094C154.132 27.2913 154.31 26.5867 154.664 25.98C155.019 25.364 155.504 24.8927 156.12 24.566C156.736 24.2393 157.427 24.076 158.192 24.076C158.958 24.076 159.648 24.2393 160.264 24.566C160.88 24.8927 161.366 25.364 161.72 25.98C162.075 26.5867 162.252 27.2913 162.252 28.094C162.252 28.8967 162.07 29.606 161.706 30.222C161.352 30.8287 160.862 31.2953 160.236 31.622C159.62 31.9487 158.93 32.112 158.164 32.112ZM158.164 30.04C158.622 30.04 159.009 29.872 159.326 29.536C159.653 29.2 159.816 28.7193 159.816 28.094C159.816 27.4687 159.658 26.988 159.34 26.652C159.032 26.316 158.65 26.148 158.192 26.148C157.726 26.148 157.338 26.316 157.03 26.652C156.722 26.9787 156.568 27.4593 156.568 28.094C156.568 28.7193 156.718 29.2 157.016 29.536C157.324 29.872 157.707 30.04 158.164 30.04ZM166.013 28.094C166.013 27.282 166.176 26.5727 166.503 25.966C166.839 25.3593 167.301 24.8927 167.889 24.566C168.486 24.2393 169.168 24.076 169.933 24.076C170.913 24.076 171.73 24.3327 172.383 24.846C173.046 25.3593 173.48 26.0827 173.685 27.016H171.137C170.922 26.4187 170.507 26.12 169.891 26.12C169.452 26.12 169.102 26.2927 168.841 26.638C168.58 26.974 168.449 27.4593 168.449 28.094C168.449 28.7287 168.58 29.2187 168.841 29.564C169.102 29.9 169.452 30.068 169.891 30.068C170.507 30.068 170.922 29.7693 171.137 29.172H173.685C173.48 30.0867 173.046 30.8053 172.383 31.328C171.72 31.8507 170.904 32.112 169.933 32.112C169.168 32.112 168.486 31.9487 167.889 31.622C167.301 31.2953 166.839 30.8287 166.503 30.222C166.176 29.6153 166.013 28.906 166.013 28.094ZM178.522 32.112C177.756 32.112 177.066 31.9487 176.45 31.622C175.843 31.2953 175.362 30.8287 175.008 30.222C174.662 29.6153 174.49 28.906 174.49 28.094C174.49 27.2913 174.667 26.5867 175.022 25.98C175.376 25.364 175.862 24.8927 176.478 24.566C177.094 24.2393 177.784 24.076 178.55 24.076C179.315 24.076 180.006 24.2393 180.622 24.566C181.238 24.8927 181.723 25.364 182.078 25.98C182.432 26.5867 182.61 27.2913 182.61 28.094C182.61 28.8967 182.428 29.606 182.064 30.222C181.709 30.8287 181.219 31.2953 180.594 31.622C179.978 31.9487 179.287 32.112 178.522 32.112ZM178.522 30.04C178.979 30.04 179.366 29.872 179.684 29.536C180.01 29.2 180.174 28.7193 180.174 28.094C180.174 27.4687 180.015 26.988 179.698 26.652C179.39 26.316 179.007 26.148 178.55 26.148C178.083 26.148 177.696 26.316 177.388 26.652C177.08 26.9787 176.926 27.4593 176.926 28.094C176.926 28.7193 177.075 29.2 177.374 29.536C177.682 29.872 178.064 30.04 178.522 30.04ZM187.436 32.112C186.67 32.112 185.98 31.9487 185.364 31.622C184.757 31.2953 184.276 30.8287 183.922 30.222C183.576 29.6153 183.404 28.906 183.404 28.094C183.404 27.2913 183.581 26.5867 183.936 25.98C184.29 25.364 184.776 24.8927 185.392 24.566C186.008 24.2393 186.698 24.076 187.464 24.076C188.229 24.076 188.92 24.2393 189.536 24.566C190.152 24.8927 190.637 25.364 190.992 25.98C191.346 26.5867 191.524 27.2913 191.524 28.094C191.524 28.8967 191.342 29.606 190.978 30.222C190.623 30.8287 190.133 31.2953 189.508 31.622C188.892 31.9487 188.201 32.112 187.436 32.112ZM187.436 30.04C187.893 30.04 188.28 29.872 188.598 29.536C188.924 29.2 189.088 28.7193 189.088 28.094C189.088 27.4687 188.929 26.988 188.612 26.652C188.304 26.316 187.921 26.148 187.464 26.148C186.997 26.148 186.61 26.316 186.302 26.652C185.994 26.9787 185.84 27.4593 185.84 28.094C185.84 28.7193 185.989 29.2 186.288 29.536C186.596 29.872 186.978 30.04 187.436 30.04ZM197.568 32L195.188 28.724V32H192.794V21.64H195.188V27.366L197.554 24.188H200.508L197.26 28.108L200.536 32H197.568ZM208.769 29.97V32H207.551C206.683 32 206.006 31.79 205.521 31.37C205.036 30.9407 204.793 30.2453 204.793 29.284V26.176H203.841V24.188H204.793V22.284H207.187V24.188H208.755V26.176H207.187V29.312C207.187 29.5453 207.243 29.7133 207.355 29.816C207.467 29.9187 207.654 29.97 207.915 29.97H208.769ZM213.658 32.112C212.893 32.112 212.202 31.9487 211.586 31.622C210.98 31.2953 210.499 30.8287 210.144 30.222C209.799 29.6153 209.626 28.906 209.626 28.094C209.626 27.2913 209.804 26.5867 210.158 25.98C210.513 25.364 210.998 24.8927 211.614 24.566C212.23 24.2393 212.921 24.076 213.686 24.076C214.452 24.076 215.142 24.2393 215.758 24.566C216.374 24.8927 216.86 25.364 217.214 25.98C217.569 26.5867 217.746 27.2913 217.746 28.094C217.746 28.8967 217.564 29.606 217.2 30.222C216.846 30.8287 216.356 31.2953 215.73 31.622C215.114 31.9487 214.424 32.112 213.658 32.112ZM213.658 30.04C214.116 30.04 214.503 29.872 214.82 29.536C215.147 29.2 215.31 28.7193 215.31 28.094C215.31 27.4687 215.152 26.988 214.834 26.652C214.526 26.316 214.144 26.148 213.686 26.148C213.22 26.148 212.832 26.316 212.524 26.652C212.216 26.9787 212.062 27.4593 212.062 28.094C212.062 28.7193 212.212 29.2 212.51 29.536C212.818 29.872 213.201 30.04 213.658 30.04ZM218.54 28.08C218.54 27.2773 218.69 26.5727 218.988 25.966C219.296 25.3593 219.712 24.8927 220.234 24.566C220.757 24.2393 221.34 24.076 221.984 24.076C222.498 24.076 222.964 24.1833 223.384 24.398C223.814 24.6127 224.15 24.902 224.392 25.266V21.64H226.786V32H224.392V30.88C224.168 31.2533 223.846 31.552 223.426 31.776C223.016 32 222.535 32.112 221.984 32.112C221.34 32.112 220.757 31.9487 220.234 31.622C219.712 31.286 219.296 30.8147 218.988 30.208C218.69 29.592 218.54 28.8827 218.54 28.08ZM224.392 28.094C224.392 27.4967 224.224 27.0253 223.888 26.68C223.562 26.3347 223.16 26.162 222.684 26.162C222.208 26.162 221.802 26.3347 221.466 26.68C221.14 27.016 220.976 27.4827 220.976 28.08C220.976 28.6773 221.14 29.1533 221.466 29.508C221.802 29.8533 222.208 30.026 222.684 30.026C223.16 30.026 223.562 29.8533 223.888 29.508C224.224 29.1627 224.392 28.6913 224.392 28.094ZM228.042 28.08C228.042 27.2773 228.192 26.5727 228.49 25.966C228.798 25.3593 229.214 24.8927 229.736 24.566C230.259 24.2393 230.842 24.076 231.486 24.076C232.037 24.076 232.518 24.188 232.928 24.412C233.348 24.636 233.67 24.93 233.894 25.294V24.188H236.288V32H233.894V30.894C233.661 31.258 233.334 31.552 232.914 31.776C232.504 32 232.023 32.112 231.472 32.112C230.838 32.112 230.259 31.9487 229.736 31.622C229.214 31.286 228.798 30.8147 228.49 30.208C228.192 29.592 228.042 28.8827 228.042 28.08ZM233.894 28.094C233.894 27.4967 233.726 27.0253 233.39 26.68C233.064 26.3347 232.662 26.162 232.186 26.162C231.71 26.162 231.304 26.3347 230.968 26.68C230.642 27.016 230.478 27.4827 230.478 28.08C230.478 28.6773 230.642 29.1533 230.968 29.508C231.304 29.8533 231.71 30.026 232.186 30.026C232.662 30.026 233.064 29.8533 233.39 29.508C233.726 29.1627 233.894 28.6913 233.894 28.094ZM246 24.188L241.1 35.71H238.524L240.316 31.734L237.138 24.188H239.812L241.618 29.074L243.41 24.188H246ZM249.736 21.626C250.735 21.626 251.533 21.8873 252.13 22.41C252.737 22.9327 253.04 23.67 253.04 24.622C253.04 25.4993 252.751 26.1853 252.172 26.68C251.603 27.1653 250.847 27.4127 249.904 27.422L249.834 28.472H247.734L247.664 25.868H248.504C249.223 25.868 249.769 25.7793 250.142 25.602C250.525 25.4247 250.716 25.1027 250.716 24.636C250.716 24.3093 250.627 24.0527 250.45 23.866C250.273 23.6793 250.025 23.586 249.708 23.586C249.372 23.586 249.111 23.684 248.924 23.88C248.737 24.0667 248.644 24.3233 248.644 24.65H246.39C246.371 24.0807 246.488 23.5673 246.74 23.11C247.001 22.6527 247.384 22.2933 247.888 22.032C248.401 21.7613 249.017 21.626 249.736 21.626ZM248.812 32.112C248.392 32.112 248.047 31.9907 247.776 31.748C247.515 31.496 247.384 31.188 247.384 30.824C247.384 30.4507 247.515 30.138 247.776 29.886C248.047 29.634 248.392 29.508 248.812 29.508C249.223 29.508 249.559 29.634 249.82 29.886C250.091 30.138 250.226 30.4507 250.226 30.824C250.226 31.188 250.091 31.496 249.82 31.748C249.559 31.9907 249.223 32.112 248.812 32.112Z" fill="black"/>
</svg>
