<?xml version="1.0" standalone="no"?>
<!DOCTYPE svg PUBLIC "-//W3C//DTD SVG 20010904//EN"
 "http://www.w3.org/TR/2001/REC-SVG-20010904/DTD/svg10.dtd">
<svg version="1.0" xmlns="http://www.w3.org/2000/svg"
 width="282.000000pt" height="235.000000pt" viewBox="0 0 282.000000 235.000000"
 preserveAspectRatio="xMidYMid meet">

<g transform="translate(0.000000,235.000000) scale(0.100000,-0.100000)"
fill="#000000" stroke="none">
<path d="M1365 2121 c-28 -10 -61 -23 -73 -30 -17 -9 -27 -9 -36 -2 -15 13
-26 4 -26 -21 0 -12 -7 -18 -24 -18 -23 0 -36 -16 -36 -46 0 -9 5 -12 10 -9 9
5 15 -16 11 -38 -1 -5 3 -6 9 -2 5 3 13 0 16 -9 9 -23 83 -14 139 17 l48 28
32 -31 c18 -17 47 -33 66 -36 25 -4 40 -15 53 -37 l18 -32 20 28 c11 15 29 27
42 27 21 0 22 3 18 68 -4 70 -23 102 -62 102 -10 0 -23 7 -31 16 -38 46 -111
55 -194 25z"/>
<path d="M1412 1898 c3 -7 15 -15 27 -16 16 -3 22 1 19 10 -3 7 -15 15 -27 16
-16 3 -22 -1 -19 -10z"/>
<path d="M1285 1879 c-4 -6 -5 -13 -2 -16 8 -7 47 7 47 18 0 13 -37 11 -45 -2z"/>
<path d="M1341 1855 c-1 -29 -4 -36 -11 -25 -7 11 -12 12 -21 3 -15 -15 -3
-47 15 -40 10 4 17 -3 21 -22 8 -35 59 -68 80 -51 22 18 18 32 -4 20 -27 -14
-41 -13 -41 4 0 8 -6 16 -12 18 -8 3 -15 31 -19 69 -4 46 -6 53 -8 24z"/>
<path d="M1600 1851 c-5 -11 -10 -30 -10 -42 0 -35 21 -8 24 30 3 36 0 38 -14
12z"/>
<path d="M1420 1831 c0 -11 4 -22 9 -25 12 -8 34 21 26 34 -11 17 -35 11 -35
-9z"/>
<path d="M1530 1610 c-19 -11 -47 -19 -62 -20 -21 0 -28 -5 -28 -20 0 -12 7
-20 16 -20 28 0 82 31 99 56 8 13 14 24 13 24 -2 -1 -19 -9 -38 -20z"/>
<path d="M1622 1460 c-12 -16 -39 -39 -60 -49 -20 -11 -30 -20 -22 -21 19 0
86 54 100 81 16 28 7 23 -18 -11z"/>
<path d="M1450 1412 c0 -12 19 -26 26 -19 2 2 -2 10 -11 17 -9 8 -15 8 -15 2z"/>
<path d="M1498 1383 c7 -3 16 -2 19 1 4 3 -2 6 -13 5 -11 0 -14 -3 -6 -6z"/>
<path d="M2012 1324 c-30 -24 -50 -44 -45 -44 4 0 31 20 58 45 65 57 56 57
-13 -1z"/>
<path d="M1770 1346 c0 -2 8 -10 18 -17 15 -13 16 -12 3 4 -13 16 -21 21 -21
13z"/>
<path d="M1311 1245 c-35 -47 -70 -85 -79 -86 -10 0 -12 -3 -5 -6 9 -3 8 -11
-4 -29 -8 -14 -14 -27 -11 -29 2 -2 29 -7 60 -11 51 -6 57 -5 68 16 12 22 44
219 37 226 -2 2 -31 -35 -66 -81z"/>
<path d="M1831 1294 c0 -15 218 -440 218 -428 1 12 -89 279 -111 330 -12 28
-29 46 -90 93 -10 7 -18 10 -17 5z"/>
<path d="M1148 1083 c7 -3 16 -2 19 1 4 3 -2 6 -13 5 -11 0 -14 -3 -6 -6z"/>
<path d="M1005 1027 c-168 -81 -228 -113 -255 -136 -19 -16 -13 -15 20 5 25
15 117 63 205 105 88 43 156 78 150 78 -5 0 -59 -23 -120 -52z"/>
<path d="M1263 973 c20 -2 54 -2 75 0 20 2 3 4 -38 4 -41 0 -58 -2 -37 -4z"/>
<path d="M699 853 c-13 -16 -12 -17 4 -4 9 7 17 15 17 17 0 8 -8 3 -21 -13z"/>
<path d="M1310 850 l-35 -7 35 -1 c19 0 46 4 60 8 l25 8 -25 0 c-14 0 -41 -4
-60 -8z"/>
<path d="M1358 713 c6 -2 18 -2 25 0 6 3 1 5 -13 5 -14 0 -19 -2 -12 -5z"/>
<path d="M1298 703 c6 -2 18 -2 25 0 6 3 1 5 -13 5 -14 0 -19 -2 -12 -5z"/>
<path d="M1048 484 c-3 -3 -4 -14 -1 -25 4 -15 14 -19 54 -19 27 0 49 -4 49
-10 0 -5 16 -10 36 -10 21 0 33 -4 29 -10 -3 -5 -19 -10 -36 -10 -16 0 -29 -4
-29 -10 0 -5 -20 -10 -45 -10 -51 0 -51 -1 -31 -75 16 -63 41 -111 63 -124 14
-8 9 -10 -24 -11 -39 0 -44 -3 -63 -40 -27 -53 -25 -65 3 -15 21 38 25 40 75
43 28 2 52 0 52 -3 0 -3 -7 -21 -14 -40 -8 -19 -11 -35 -7 -35 4 0 13 18 20
40 l12 40 249 0 249 0 12 -40 c7 -22 16 -40 21 -40 4 0 1 16 -7 36 -8 20 -15
38 -15 40 0 2 24 4 53 4 53 0 54 -1 72 -40 10 -22 22 -40 26 -40 4 0 -4 20
-18 45 -24 43 -27 45 -71 46 -26 0 -42 3 -35 5 35 15 93 185 93 277 l0 37
-383 0 c-211 0 -386 -3 -389 -6z"/>
<path d="M2420 470 c0 -19 7 -20 100 -20 93 0 100 1 100 20 0 19 -7 20 -100
20 -93 0 -100 -1 -100 -20z"/>
<path d="M2100 425 c-7 -20 -32 -66 -56 -102 -50 -75 -54 -96 -5 -28 35 49 86
153 78 161 -3 3 -10 -11 -17 -31z"/>
<path d="M2186 403 c-8 -17 -33 -52 -55 -80 -38 -48 -40 -54 -36 -109 1 -33 6
-76 10 -96 6 -33 11 -38 35 -38 26 0 27 2 34 63 3 35 3 84 0 110 l-7 46 -28
-14 c-43 -23 -44 -18 -7 23 40 45 82 111 75 118 -3 3 -12 -7 -21 -23z"/>
<path d="M2230 290 c0 -18 7 -20 60 -20 53 0 60 2 60 20 0 18 -7 20 -60 20
-53 0 -60 -2 -60 -20z"/>
<path d="M190 129 c-12 -23 -20 -43 -17 -45 2 -2 12 14 22 36 18 40 19 40 73
40 45 0 53 -3 48 -16 -3 -9 -8 -28 -11 -42 -3 -15 2 -8 11 16 l16 42 248 0
249 0 12 -40 c7 -22 16 -40 20 -40 4 0 1 16 -7 35 -7 19 -14 37 -14 40 0 3 24
5 52 3 50 -3 54 -5 75 -43 28 -50 30 -38 3 15 l-20 40 -370 0 -370 0 -20 -41z"/>
</g>
</svg>
